<?xml version="1.0" encoding="utf-8"?>
<!-- Generator: Adobe Illustrator 22.1.0, SVG Export Plug-In . SVG Version: 6.00 Build 0)  -->
<svg version="1.1" id="Capa_1" xmlns="http://www.w3.org/2000/svg" xmlns:xlink="http://www.w3.org/1999/xlink" x="0px" y="0px"
	 viewBox="0 0 14.8 16" style="enable-background:new 0 0 14.8 16;" xml:space="preserve">
<style type="text/css">
	.st0{fill:#B86139;}
</style>
<g>
	<path class="st0" d="M7.9,2.8C7.8,3,7.5,3,7.3,2.8c-0.4-0.3-1-0.5-1.5-0.5c-0.7,0-1.8,0.3-1.9,1.2C3.6,5.7,9.2,4.3,8.6,8.4
		C8.3,11,6,12.3,3.5,12.3c-1.3,0-2.5-0.4-3.4-1.1C0,11,0,10.7,0.1,10.5l1.4-1.4C1.8,9,2,9,2.2,9.2C2.6,9.7,3.3,9.9,4,9.9
		c0.8,0,1.8-0.4,1.9-1.2c0.3-2.2-5.4-1-4.8-4.9C1.5,1.3,3.9,0,6.2,0c1.1,0,2.2,0.2,3.1,0.9C9.5,1,9.5,1.3,9.3,1.5L7.9,2.8z"/>
	<path class="st0" d="M13.7,11.8c-0.3,2.2-1.2,4.2-4.3,4.2c-1.7,0-2.9-0.7-3.2-2.3c0-0.2,0.1-0.4,0.3-0.5l1.6-0.4
		c0.2-0.1,0.4,0.1,0.5,0.2c0.2,0.4,0.5,0.7,1,0.7c1.2,0,1.4-1.3,1.5-2.2l1-7.1c0-0.2,0.2-0.4,0.4-0.4h1.7c0.3,0,0.5,0.2,0.4,0.5
		L13.7,11.8z"/>
</g>
</svg>
