<?xml version="1.0" encoding="utf-8"?>
<!-- Generator: Adobe Illustrator 22.1.0, SVG Export Plug-In . SVG Version: 6.00 Build 0)  -->
<svg version="1.1" id="Capa_1" xmlns="http://www.w3.org/2000/svg" xmlns:xlink="http://www.w3.org/1999/xlink" x="0px" y="0px"
	 viewBox="0 0 222.2 108.5" style="enable-background:new 0 0 222.2 108.5;" xml:space="preserve">
<style type="text/css">
	.st0{fill:#B86139;}
</style>
<g>
	<path class="st0" d="M28.4,12.1c-0.6,0.6-1.5,0.5-2.2,0c-1.4-1.2-3.6-1.7-5.3-1.7c-2.6,0-6.4,1.2-6.9,4.4
		c-1.1,7.7,19,2.7,16.9,17.5c-1.3,9.4-9.5,13.9-18.3,13.9c-4.8,0-8.9-1.3-12.2-4.1c-0.7-0.6-0.7-1.7,0-2.3l5.2-4.9
		c0.6-0.6,1.6-0.6,2.2,0c1.6,1.8,4.1,2.8,6.6,2.8c3,0,6.6-1.4,7-4.4c1.1-7.8-19.3-3.6-17.3-17.7c1.3-9,9.7-13.7,18-13.7
		c4.1,0,8,0.9,11,3.2C34,5.6,34,6.7,33.3,7.4L28.4,12.1z"/>
	<path class="st0" d="M54.2,15.4c-8.9,0-16.9,6-18.3,15.2c-1.3,9.2,5,15.2,14,15.2c8.9,0,16.9-6,18.3-15.2
		C69.4,21.4,63.1,15.4,54.2,15.4z M59.2,30.6c-0.6,4.4-3.7,7.3-8.2,7.3c-4.5,0-6.7-3-6.1-7.3c0.6-4.4,3.7-7.3,8.2-7.3
		C57.5,23.3,59.8,26.2,59.2,30.6z"/>
	<path class="st0" d="M94.9,24.4c-0.6,0.5-1.5,0.6-2.1,0.1c-0.8-0.7-2-1.2-3.3-1.2c-4.5,0-7.6,3-8.2,7.3c-0.6,4.4,1.7,7.3,6.1,7.3
		c1.4,0,2.6-0.5,3.5-1.2c0.7-0.5,1.7-0.4,2.2,0.3l3,3.7c0.6,0.7,0.4,1.8-0.3,2.3c-3,2.1-6.6,2.8-9.6,2.8c-8.9,0-15.3-6-14-15.2
		c1.3-9.2,9.3-15.2,18.3-15.2c2.8,0,6.1,0.7,8.4,2.6c0.8,0.6,0.8,1.8,0.1,2.4L94.9,24.4z"/>
	<path class="st0" d="M105.6,16.1h5.7c1,0,1.7,0.9,1.6,1.8l-3.6,25.8c-0.1,0.8-0.8,1.4-1.6,1.4H102c-1,0-1.7-0.9-1.6-1.8l3.6-25.8
		C104.2,16.7,104.9,16.1,105.6,16.1z"/>
	<path class="st0" d="M110.8,1.8c2.9,0,4.9,2.3,4.5,5.2c-0.4,2.9-3,5.2-5.9,5.2c-2.9,0-4.9-2.3-4.5-5.2
		C105.3,4.1,107.9,1.8,110.8,1.8z"/>
	<path class="st0" d="M133,15.4c-4.1,0-8.5,1.2-12,3.6c-0.8,0.5-0.9,1.6-0.3,2.3l2,2.4c0.6,0.7,1.5,0.7,2.2,0.2
		c1.9-1.5,4.2-2.4,6.6-2.4c2.4,0,4.3,1.2,4.9,3.2c0.3,1-0.5,2-1.5,2c-7.5,0.1-18.1,0.9-19.4,10.2c-0.8,5.8,3.6,8.9,9.1,8.9
		c3.6,0,7.4-1.3,9.8-4.4h0.1l-0.3,1.8c-0.1,1,0.6,1.8,1.6,1.8h5c0.8,0,1.5-0.6,1.6-1.4l1.9-13.4C145.4,20.7,143.4,15.4,133,15.4z
		 M135.3,34.3c-0.5,3.6-4,5.4-7.5,5.4c-2,0-4.1-1-3.8-3.2c0.5-3.9,6.7-4.2,9.4-4.2h0.4C134.7,32.4,135.4,33.3,135.3,34.3L135.3,34.3
		z"/>
	<path class="st0" d="M155.4,0h5.7c1,0,1.7,0.9,1.6,1.8l-5.9,41.9c-0.1,0.8-0.8,1.4-1.6,1.4h-5.7c-1,0-1.7-0.9-1.6-1.8l5.9-41.9
		C154,0.6,154.7,0,155.4,0z"/>
	<path class="st0" d="M64.7,80c-1.1,7.8-4.2,15.2-15.6,15.2c-6.2,0-10.4-2.7-11.4-8.4c-0.1-0.8,0.4-1.6,1.2-1.8l5.8-1.4
		c0.8-0.2,1.6,0.2,1.8,0.9C47.1,86,48.4,87,50,87c4.4,0,5.1-4.8,5.5-8l3.6-25.7c0.1-0.8,0.8-1.4,1.6-1.4h6.1c1,0,1.7,0.9,1.6,1.8
		L64.7,80z"/>
	<path class="st0" d="M96.1,94.2h-5.4c-1,0-1.7-0.8-1.6-1.8l0.3-2.1h-0.1c-1.5,2.3-4.8,4.7-9.1,4.7c-9.1,0-9.9-6-8.8-13.7l2-14.6
		c0.1-0.8,0.8-1.4,1.6-1.4h5.7c1,0,1.7,0.9,1.6,1.8l-1.7,12.4c-0.5,3.3-1,7.6,3.6,7.6c4.7,0,5.8-3.6,6.4-7.4l1.8-13.1
		c0.1-0.8,0.8-1.4,1.6-1.4h5.7c1,0,1.7,0.9,1.6,1.8l-3.6,25.8C97.5,93.6,96.9,94.2,96.1,94.2z"/>
	<path class="st0" d="M109.2,65.2h5.4c1,0,1.7,0.8,1.6,1.8l-0.3,2.1h0.1c1.5-2.3,4.8-4.7,9.1-4.7c9.1,0,9.9,6,8.8,13.7l-2.1,14.6
		c-0.1,0.8-0.8,1.4-1.6,1.4h-5.7c-1,0-1.7-0.9-1.6-1.8l1.7-12.4c0.5-3.3,1-7.6-3.6-7.6c-4.7,0-5.8,3.6-6.4,7.4l-1.8,13.1
		c-0.1,0.8-0.8,1.4-1.6,1.4h-5.7c-1,0-1.7-0.9-1.6-1.8l3.6-25.8C107.7,65.8,108.4,65.2,109.2,65.2z"/>
	<path class="st0" d="M165.6,65.2c-0.8,0-1.5,0.6-1.6,1.4l-0.3,2.5h-0.1c-1.1-2.1-4.2-4.5-9.2-4.5c-8.2,0-14.3,7.4-15.4,15.1
		c-1.2,8.8,3.6,15,12.2,15c2.7,0,6.3-1,8.7-3.8h0.1l-0.4,2.8c-0.6,4.1-3.6,7.1-9,7.1c-3.1,0-5.6-1-7.7-2.7c-0.7-0.5-1.7-0.5-2.2,0.2
		l-4,4.9c-0.6,0.7-0.5,1.8,0.3,2.3c3.6,2.5,8.1,3.2,12.7,3.2c11.2,0,17.6-5.8,19.1-16.8l3.4-24.7c0.1-1-0.6-1.8-1.6-1.8H165.6z
		 M162.3,79.5c-0.5,3.8-4.1,7.2-8.2,7.2c-4.1,0-6.7-3.4-6.1-7.2c0.5-3.8,4.1-7.2,8.1-7.2C160.1,72.3,162.8,75.7,162.3,79.5z"/>
	<path class="st0" d="M183.4,49.1h5.7c1,0,1.7,0.9,1.6,1.8l-5.9,41.9c-0.1,0.8-0.8,1.4-1.6,1.4h-5.7c-1,0-1.7-0.9-1.6-1.8l5.9-41.9
		C181.9,49.7,182.6,49.1,183.4,49.1z"/>
	<path class="st0" d="M210.5,64.5c-8.9,0-16.9,6-18.3,15.2c-1.3,9.2,5,15.2,14,15.2c4.1,0,8.4-1.6,11.7-4.4c0.7-0.6,0.7-1.8-0.1-2.4
		l-3.1-2.5c-0.6-0.5-1.5-0.5-2.1,0.1c-1.6,1.5-3.5,2.5-5.9,2.5c-2.6,0-4.5-1.3-5.4-3.4c-0.4-1.1,0.3-2.2,1.5-2.2h17.4
		c0.8,0,1.5-0.6,1.6-1.4l0.2-1.4C223.2,70.4,218.8,64.5,210.5,64.5z M211.9,76.4h-7.8c-1.3,0-2-1.5-1.3-2.5c1.2-1.7,3.3-3,6-3
		c2.5,0,4.2,1.5,4.7,3.6C213.6,75.5,212.9,76.4,211.9,76.4z"/>
</g>
</svg>
