<svg id="Capa_1" data-name="Capa 1" xmlns="http://www.w3.org/2000/svg" viewBox="0 0 400 283.24">
  <defs>
    <style>
      .cls-1 {
        fill: #ec663b;
      }

      .cls-2 {
        fill: #ec673a;
      }

      .cls-3 {
        fill: #f4991d;
      }
    </style>
  </defs>
  <title>logo.hotsleads.2.lineas</title>
  <g>
    <path class="cls-1" d="M36.0747,224.61V174.2291h10.459v19.209H66.1176v-19.209h10.459V224.61H66.1176V202.12H46.5337v22.49Z"/>
    <path class="cls-1" d="M116.977,220.0524q-4.7168,5.8227-14.32,5.8223-9.6065,0-14.3223-5.8223a23.1148,23.1148,0,0,1,0-27.9863q4.7169-5.9078,14.3223-5.9082,9.6036,0,14.32,5.9082a23.1148,23.1148,0,0,1,0,27.9863Zm-7.7929-5.3838q2.2909-3.0381,2.291-8.6348,0-5.5986-2.291-8.6181a8.6584,8.6584,0,0,0-13.1426,0q-2.3056,3.02-2.3067,8.6181t2.3067,8.6348a8.6276,8.6276,0,0,0,13.1426,0Z"/>
    <path class="cls-1" d="M124.8383,194.6344v-6.9385h5.1954V177.3053h9.6386v10.3906h6.0508v6.9385h-6.0508v19.6875q0,2.2911.5821,2.8545.58.5625,3.5547.5635c.2949,0,.6093-.0049.9394-.0166s.6543-.0283.9746-.0518v7.28l-4.6152.1709q-6.9052.2388-9.4336-2.3926-1.6407-1.6743-1.6406-5.1611V194.6344Z"/>
    <path class="cls-1" d="M172.2114,174.2291h10.5273v41.3233H207.895V224.61H172.2114Z"/>
    <path class="cls-1" d="M238.4614,188.109a15.1394,15.1394,0,0,1,6.4375,5.5108,18.2974,18.2974,0,0,1,2.9687,7.7031,47.7663,47.7663,0,0,1,.3223,7.3935H221.0551q.2256,5.6061,3.8946,7.8614a9.8982,9.8982,0,0,0,5.3711,1.4013,7.5623,7.5623,0,0,0,7.414-4.2724H247.68a12.1518,12.1518,0,0,1-3.6113,6.7334q-5.0038,5.4345-14.0156,5.4346a20.3109,20.3109,0,0,1-13.1231-4.584q-5.6865-4.5835-5.6855-14.9151,0-9.6811,5.1328-14.8467t13.3223-5.166A21.2042,21.2042,0,0,1,238.4614,188.109Zm-14.5723,8.4151a10.12,10.12,0,0,0-2.5957,5.7666h16.7832a8.13,8.13,0,0,0-2.5957-5.8868,8.536,8.536,0,0,0-5.7773-2.0087A7.7265,7.7265,0,0,0,223.8891,196.5241Z"/>
    <path class="cls-1" d="M267.8716,201.9489a15.4172,15.4172,0,0,0,3.8906-.8545,2.929,2.929,0,0,0,2.1-2.7686,3.2717,3.2717,0,0,0-1.6113-3.1611,10.169,10.169,0,0,0-4.7286-.8721q-3.498,0-4.955,1.709a7.0443,7.0443,0,0,0-1.3848,3.418h-9.4a14.2656,14.2656,0,0,1,2.7461-8.0323q3.8789-4.9218,13.32-4.9218a23.76,23.76,0,0,1,10.916,2.4267q4.77,2.4273,4.7715,9.16v17.09q0,1.7784.0684,4.3067a5.4208,5.4208,0,0,0,.58,2.5976,3.4775,3.4775,0,0,0,1.4355,1.128V224.61H275.0239a10.7479,10.7479,0,0,1-.6152-2.1191q-.17-.99-.2735-2.2559a20.0606,20.0606,0,0,1-4.6758,3.7256,14.1311,14.1311,0,0,1-7.15,1.8115,12.34,12.34,0,0,1-8.4063-2.8887q-3.3163-2.8872-3.3164-8.1855,0-6.87,5.3359-9.9463a23.8467,23.8467,0,0,1,8.6094-2.3926Zm5.955,4.5459a10.6745,10.6745,0,0,1-1.8867.9394,15.8974,15.8974,0,0,1-2.6172.667l-2.2168.41a14.641,14.641,0,0,0-4.4785,1.333,4.4506,4.4506,0,0,0-2.3008,4.1357,4.32,4.32,0,0,0,1.4063,3.6065,5.344,5.344,0,0,0,3.4179,1.11,10.18,10.18,0,0,0,5.8829-1.8457q2.6893-1.8458,2.7929-6.7334Z"/>
    <path class="cls-1" d="M311.8012,187.9518a11.8554,11.8554,0,0,1,4.2735,4.1191V174.2975h9.8769V224.61h-9.4668v-5.1611a13.7364,13.7364,0,0,1-4.7519,4.8193,13.3465,13.3465,0,0,1-6.6309,1.5039,13.8441,13.8441,0,0,1-10.9883-5.2812q-4.4589-5.2794-4.4609-13.5518,0-9.5361,4.3926-15.0049a14.29,14.29,0,0,1,11.74-5.4687A12.0245,12.0245,0,0,1,311.8012,187.9518Zm2.3926,26.541a13.59,13.59,0,0,0,2.1543-7.9639q0-6.8349-3.4531-9.7753a7.4286,7.4286,0,0,0-4.9219-1.7774,6.8446,6.8446,0,0,0-6.2715,3.23,14.9793,14.9793,0,0,0-2,8.0156,14.8118,14.8118,0,0,0,2.0352,8.2539,6.8719,6.8719,0,0,0,6.168,3.0938A7.1911,7.1911,0,0,0,314.1938,214.4928Z"/>
    <path class="cls-1" d="M342.3579,212.7155a6.4847,6.4847,0,0,0,1.34,3.6914q1.8193,1.9482,6.7305,1.9482a10.2957,10.2957,0,0,0,4.5859-.8545,2.7369,2.7369,0,0,0,1.6992-2.5634,2.7651,2.7651,0,0,0-1.3691-2.4952q-1.3682-.8539-10.1914-2.9394-6.3486-1.5719-8.9473-3.9307a8.518,8.518,0,0,1-2.5976-6.6992,11.6148,11.6148,0,0,1,4.0586-8.87q4.06-3.7075,11.4238-3.708,6.9873,0,11.3887,2.7861,4.4033,2.7861,5.0527,9.6211h-9.74a5.7773,5.7773,0,0,0-1.0625-2.9736q-1.6113-1.9819-5.4844-1.9825a7.9,7.9,0,0,0-4.541.9913,2.8516,2.8516,0,0,0-1.3535,2.3242,2.54,2.54,0,0,0,1.4394,2.4267q1.4385.7866,10.17,2.7,5.8213,1.3682,8.7266,4.1358a9.3905,9.3905,0,0,1,2.8711,7.0068,11.3115,11.3115,0,0,1-4.127,9.041q-4.1278,3.5025-12.7558,3.503-8.8038,0-12.9981-3.7081a12.056,12.056,0,0,1-4.1953-9.4511Z"/>
  </g>
  <g>
    <path class="cls-2" d="M201.7565,135.4543c-11.4542-1.0344-19.1923-9.1188-18.92-20.05.3605-14.4427,8.4563-24.8844,18.509-34.6988,4.6672,4.989,8.3077,9.8976,8.9219,16.5416.6359,6.8959-3.2043,11.84-7.9936,16.9524,11.1145-1.8813,17.153-10.5656,15.2925-21.5533a53.241,53.241,0,0,0-14.771-28.9932c-5.2748-5.3486-11.5319-9.185-20.3459-9.81,1.26,1.4545,1.88,2.1955,2.5286,2.9109,7.4172,8.2036,7.6462,14.701.8479,23.5018-2.6961,3.489-5.5009,6.9043-8.0144,10.5211-14.1322,20.3317-3.2553,45.4876,20.819,48.0606a24.4708,24.4708,0,0,0,15.9511-3.32C210.4541,135.5186,206.0736,135.8451,201.7565,135.4543Z"/>
    <path class="cls-3" d="M210.84,71.7918c28.663,52.3615-13.1093,51.2913-22.9473,50.3762-1.2576-.1174-1.9986-.2319-1.9986-.2319v1.7819a33.7642,33.7642,0,0,0,9.679,6.9441,15.3537,15.3537,0,0,0,2.2134.8649,18.5266,18.5266,0,0,0,11.5337.1779A21.6921,21.6921,0,0,0,223.4092,118.97C234.7848,94.6832,210.84,71.7918,210.84,71.7918Z"/>
  </g>
</svg>
